# xmcd CD database file
#
# Track frame offsets:
#	150
#	21803
#	47252
#	75820
#	95375
#	116767
#	144837
#	167291
#	189178
#	214408
#	242014
#	275273
#
# Disc length: 4054 seconds
#
# Revision: 0
# Processed by: cddbd v1.5.1PL0 Copyright (c) Steve Scherf et al.
# Submitted via: CDex 1.51
#
DISCID=880fd40c
DTITLE=Steve Newcomb Trio - Shagadelic Bacharach
DYEAR=1999
DGENRE=Jazz
TTITLE0=I Say a Little Prayer
TTITLE1=Wives and Lovers
TTITLE2=Alfie
TTITLE3=This Guy's In Love With You
TTITLE4=Anyone Who Had a Heart
TTITLE5=Always Something There to Remind Me
TTITLE6=Promises Promises
TTITLE7=The Look of Love
TTITLE8=What the World Needs Now
TTITLE9=Close To You
TTITLE10=Walk On By
TTITLE11=I Don't Know What to Do with Myself
EXTD=YEAR: 1999
EXTT0=
EXTT1=
EXTT2=
EXTT3=
EXTT4=
EXTT5=
EXTT6=
EXTT7=
EXTT8=
EXTT9=
EXTT10=
EXTT11=
PLAYORDER=
